<?xml version="1.0" standalone="no"?>
<!DOCTYPE svg PUBLIC "-//W3C//DTD SVG 20010904//EN"
 "http://www.w3.org/TR/2001/REC-SVG-20010904/DTD/svg10.dtd">
<svg version="1.0" xmlns="http://www.w3.org/2000/svg"
 width="680.000000pt" height="680.000000pt" viewBox="0 0 680.000000 680.000000"
 preserveAspectRatio="xMidYMid meet">
<metadata>
Created by potrace 1.14, written by Peter Selinger 2001-2017
</metadata>
<g transform="translate(0.000000,680.000000) scale(0.100000,-0.100000)"
fill="#000000" stroke="none">
<path d="M2747 6264 c-1 -2 -41 -5 -87 -8 -83 -6 -137 -12 -189 -21 -14 -2
-42 -7 -61 -10 -69 -11 -110 -20 -225 -48 -197 -50 -559 -188 -573 -219 -2 -5
-8 -8 -14 -8 -11 0 -143 -72 -203 -110 -16 -10 -40 -25 -51 -32 -203 -124
-512 -400 -669 -598 -33 -41 -65 -81 -72 -87 -20 -22 -179 -266 -214 -328 -65
-118 -132 -263 -174 -375 -15 -41 -31 -84 -36 -95 -8 -19 -50 -158 -55 -180
-1 -5 -7 -28 -13 -50 -16 -60 -51 -234 -57 -284 -6 -46 -9 -78 -19 -181 -10
-90 -9 -380 0 -465 4 -38 9 -83 11 -100 1 -16 5 -46 8 -65 3 -19 8 -51 11 -70
3 -19 7 -42 8 -50 5 -18 17 -80 21 -100 37 -192 149 -501 257 -705 20 -38 45
-86 55 -105 11 -19 25 -39 32 -43 6 -4 12 -13 12 -18 0 -26 192 -292 290 -403
69 -78 246 -248 314 -304 39 -31 80 -65 91 -75 11 -10 87 -63 169 -118 289
-194 653 -347 981 -415 61 -12 125 -24 160 -29 22 -3 54 -8 70 -10 17 -3 62
-8 100 -12 98 -9 1465 -9 1549 0 111 13 179 23 226 32 14 3 39 8 55 10 17 3
38 8 48 11 11 3 29 7 40 9 63 8 310 83 412 126 17 7 32 13 35 14 30 9 117 50
215 100 232 119 431 257 629 435 52 47 186 180 186 185 0 2 10 15 23 28 244
254 498 706 606 1077 36 126 53 190 56 210 2 8 5 29 9 45 11 56 14 70 21 115
3 25 9 58 11 74 3 15 7 49 9 75 2 25 7 71 10 101 4 45 8 307 6 373 -1 16 -29
17 -445 17 -244 0 -457 3 -473 6 -59 12 -100 63 -109 136 -3 24 -9 67 -14 97
-6 29 -7 57 -5 61 3 5 2 11 -3 14 -4 2 -9 17 -10 33 -1 15 -16 82 -32 148 -31
122 -33 129 -43 155 -3 8 -17 53 -32 99 -14 47 -32 98 -40 115 -7 17 -26 60
-40 96 -23 55 -116 241 -150 299 -50 85 -192 291 -237 343 -13 15 -34 42 -48
60 -31 42 -314 322 -366 364 -124 98 -213 164 -221 164 -6 0 -18 9 -28 20 -10
11 -22 20 -26 20 -5 0 -39 20 -77 43 -63 41 -309 167 -377 194 -17 6 -48 19
-70 28 -85 34 -287 97 -390 121 -27 6 -185 35 -220 40 -22 3 -50 7 -63 9 -81
13 -495 29 -505 19z m393 -368 c91 -11 114 -14 135 -19 11 -2 42 -8 68 -11 64
-10 71 -11 147 -31 36 -9 72 -19 80 -20 80 -19 351 -124 423 -164 21 -11 44
-21 52 -21 8 0 15 -4 15 -10 0 -5 6 -10 14 -10 7 0 19 -7 26 -15 7 -9 15 -13
17 -11 6 6 257 -154 273 -174 3 -3 21 -17 40 -30 38 -26 42 -30 139 -117 119
-107 236 -234 317 -343 27 -36 51 -67 54 -70 3 -3 25 -36 50 -75 25 -38 47
-72 50 -75 10 -9 71 -124 119 -225 117 -243 201 -540 234 -830 10 -81 66 -198
129 -265 62 -67 170 -130 253 -146 22 -5 43 -9 48 -10 4 -1 137 -2 296 -3
l288 -1 -3 -42 c-4 -60 -14 -136 -28 -218 -8 -43 -35 -163 -45 -198 -5 -18
-11 -36 -12 -40 -16 -62 -75 -235 -97 -287 -182 -419 -456 -771 -812 -1039
-41 -31 -79 -60 -85 -64 -54 -42 -210 -130 -350 -199 -38 -19 -78 -38 -87 -43
-10 -6 -23 -10 -30 -10 -7 0 -25 -6 -39 -14 -15 -7 -51 -21 -80 -31 -30 -9
-63 -20 -74 -25 -17 -8 -76 -25 -120 -36 -148 -35 -292 -60 -410 -71 -100 -10
-1377 -10 -1465 -1 -36 4 -83 9 -105 12 -96 10 -232 40 -420 92 -46 12 -44 12
-185 67 -397 154 -772 437 -1050 792 -17 22 -36 47 -43 55 -22 27 -123 184
-158 245 -67 115 -177 360 -193 430 -1 6 -12 42 -24 80 -41 136 -59 221 -87
405 -27 179 -21 535 11 705 2 10 6 37 10 60 3 22 10 58 15 80 6 22 12 49 14
60 2 11 4 21 4 23 1 1 1 3 1 5 -1 5 32 114 39 132 5 11 26 67 46 125 37 104
119 280 172 372 34 57 104 169 115 183 5 6 35 46 68 89 115 153 268 312 405
421 28 22 52 43 55 46 11 12 196 142 215 150 23 10 58 31 65 40 3 3 25 15 50
28 25 12 52 26 60 31 30 19 183 90 194 90 6 0 24 7 39 15 74 38 417 134 495
138 12 1 22 3 22 7 0 3 12 5 28 6 56 2 143 12 147 16 7 7 402 2 465 -6z"/>
<path d="M1712 4133 c-92 -44 -170 -152 -207 -286 -18 -62 -23 -194 -12 -270
42 -269 252 -432 441 -342 259 123 310 612 86 836 -60 60 -107 81 -190 84 -52
2 -75 -2 -118 -22z"/>
<path d="M2873 4146 c-18 -6 -33 -14 -33 -18 0 -4 -6 -8 -12 -8 -20 0 -90 -70
-125 -125 -58 -91 -78 -173 -77 -315 1 -134 18 -207 70 -297 143 -246 422
-225 548 42 95 200 60 488 -77 636 -57 62 -120 92 -196 94 -36 1 -81 -3 -98
-9z"/>
</g>
</svg>
