<svg version="1.2" xmlns="http://www.w3.org/2000/svg" viewBox="0 0 170 144" width="170" height="144"><style></style><path fill-rule="evenodd" d="m97.6 143.7h-25.2c-19.7 0-38-7.8-51.7-22-13.6-14.2-20.7-32.8-20-52.5 1.4-37.2 31.7-67.4 68.9-68.8 37.5-1.5 70 26.6 74 63.8 0.2 1.9 1.7 3.3 3.6 3.3h22.1v4.5c0 39.5-32.1 71.7-71.7 71.7zm-25.3-134.4q-1.2 0-2.4 0c-32.5 1.3-59 27.7-60.2 60.3-0.7 17.2 5.5 33.5 17.5 45.9 11.9 12.4 28 19.2 45.2 19.2h25.2c33.1 0 60.3-25.7 62.6-58.2h-13c-6.4 0-11.8-4.9-12.5-11.3-3.4-31.8-30.6-55.9-62.4-55.9z"/><path  d="m54.1 64.9c0 6.6-3.8 11.9-8.5 11.9-4.7 0-8.5-5.3-8.5-11.9 0-6.6 3.8-11.9 8.5-11.9 4.7 0 8.5 5.3 8.5 11.9z"/><path  d="m82.5 64.9c0 6.6-3.8 11.9-8.5 11.9-4.7 0-8.5-5.3-8.5-11.9 0-6.6 3.8-11.9 8.5-11.9 4.7 0 8.5 5.3 8.5 11.9z"/></svg>